<?xml version="1.0" encoding="UTF-8"?>
<svg width="35px" height="34px" viewBox="0 0 35 34" version="1.1" xmlns="http://www.w3.org/2000/svg" xmlns:xlink="http://www.w3.org/1999/xlink">
    <title>emojione-monotone:speaking-head copy 5</title>
    <g id="Flows-test" stroke="none" stroke-width="1" fill="none" fill-rule="evenodd">
        <g id="Visual-Front-page-visual-element" transform="translate(-26.000000, -616.000000)">
            <g id="Group-3-Copy" transform="translate(23.000000, 608.000000)">
                <g id="Group-4" transform="translate(3.000000, 8.000000)">
                    <rect id="ViewBox" x="0" y="0" width="35" height="33"></rect>
                    <path d="M21.4187312,22.1934812 C18.8943999,21.4322846 19.6129972,20.8263388 22.022092,19.9618146 C23.1760876,19.5469469 22.4743409,18.6720381 22.5058678,17.972111 C22.5200006,17.6517438 23.8386974,17.7156096 23.7430294,16.4798333 C23.6756269,15.6095976 21.6687726,14.3696674 21.1219429,13.8405683 C20.8061297,13.5352588 21.7655278,12.6998118 21.0898723,11.965096 C20.1674369,10.960898 20.0217606,9.21367653 19.4635159,8.23647865 C19.4635159,8.23647865 19.8891299,7.61547512 19.5629889,7.26239618 C16.7494792,4.22020579 6.25045692,4.49955353 3.56740365,8.97690595 C0.555491527,14.0030884 0.51526747,20.9499164 6.77771821,24.6925531 C9.56296233,26.3566972 5.99552338,32.25 5.99552338,32.25 L17.0402883,32.25 C17.0402883,31.243725 15.8085624,27.6340122 17.9643544,27.7960131 C19.8374909,27.9367254 22.1313493,27.8593596 21.9280547,25.838502 C21.8666315,25.2289216 21.7943369,24.6800915 22.2400629,24.1748771 C22.685789,23.6701819 23.3310046,22.7698306 21.4187312,22.1934812" id="Shape" stroke="#41A8E2" stroke-width="2" fill-rule="nonzero"></path>
                    <path d="M27.0898742,11.246592 C27.3116788,10.6619452 27.9941785,10.3571598 28.6148283,10.5655899 C28.9554757,10.7005903 28.6164202,10.5655899 28.6164202,10.5655899 L28.618012,10.5655899 L28.6227874,10.5670899 L28.6307464,10.5715899 L28.6546236,10.57909 C28.7574192,10.6145034 28.8583502,10.6545497 28.9570675,10.6990903 C29.1449011,10.7830906 29.4027744,10.906091 29.7052183,11.0785915 C30.3085144,11.4235925 31.099644,11.9725942 31.8859982,12.7930967 C33.4778084,14.4536018 34.9788854,17.1596101 34.9788854,21.3731229 C34.9788854,21.9944452 34.4443771,22.4981264 33.7850278,22.4981264 C33.1256784,22.4981264 32.5911701,21.9944452 32.5911701,21.3731229 C32.5911701,17.7131117 31.3065793,15.5456051 30.1143135,14.3006013 C29.6339299,13.795379 29.078465,13.3583459 28.4651982,13.0030974 C28.260191,12.8851207 28.0469298,12.7803801 27.8268823,12.6895964 L27.804597,12.6820964 C27.1875432,12.4706262 26.8675214,11.8292981 27.0882824,11.246592 L27.0898742,11.246592 Z" id="Path-Copy" fill="#41A8E2"></path>
                    <path d="M28.181856,14.510602 C27.6746121,14.1347185 26.9422067,14.2066843 26.5281667,14.6730926 C26.1141268,15.1395009 26.1683225,15.8315259 26.6505346,16.2356072 L26.6600855,16.2446073 L26.714207,16.2896074 C26.7635531,16.3346075 26.8415518,16.4021077 26.9354686,16.493608 C27.1264858,16.6781086 27.3811755,16.9496094 27.6358651,17.2886104 C28.156387,17.9831126 28.6116447,18.8831153 28.6116447,19.8746183 C28.6116448,20.4959406 29.146153,20.9996217 29.8055024,20.9996217 C30.4648517,20.9996217 30.99936,20.4959406 30.99936,19.8746183 C30.99936,18.2426134 30.2607601,16.8911092 29.5874244,15.9926065 C29.1915283,15.4667499 28.7362601,14.9829178 28.2296103,14.5496021 L28.1977741,14.524102 L28.1882232,14.516602 L28.1850396,14.513602 L28.1834478,14.512102 L28.181856,14.510602 Z" id="Path-Copy-2" fill="#41A8E2"></path>
                </g>
            </g>
        </g>
    </g>
</svg>