<?xml version="1.0" encoding="UTF-8"?>
<svg width="20px" height="24px" viewBox="0 0 20 24" version="1.1" xmlns="http://www.w3.org/2000/svg" xmlns:xlink="http://www.w3.org/1999/xlink">
    <title>Rectangle 3</title>
    <g id="🔹-S-/-Lytteoplevelse" stroke="none" stroke-width="1" fill="none" fill-rule="evenodd">
        <g id="mobile-maximized-player-light-image" transform="translate(-40.000000, -661.000000)" fill="#FFFFFF" fill-rule="nonzero">
            <g id="Group-4" transform="translate(40.000000, 661.000000)">
                <path d="M0.696470581,0 C0.961567265,0 1.17647059,0.214903323 1.17647059,0.480000007 L1.17647059,23.52 C1.17647059,23.7850967 0.961567265,24 0.696470581,24 L0.480000007,24 C0.214903323,24 0,23.7850967 0,23.52 L0,0.480000007 C0,0.214903323 0.214903323,0 0.480000007,0 L0.696470581,0 Z M19.52,0.48899843 C19.7556415,0.48899843 19.951624,0.658798587 19.9922666,0.882717829 L20,0.968998437 L20,23.0815206 C20,23.1795018 19.9700147,23.2751363 19.9140722,23.3555773 C19.8299848,23.4764885 19.7002881,23.5468109 19.5642937,23.5594832 L19.4822559,23.5601121 C19.4274795,23.555844 19.3729534,23.5421259 19.3211937,23.5185058 L19.2459433,23.4755928 L4.07068298,12.9219896 C4.0295913,12.8934125 3.99322208,12.8585842 3.96289384,12.8187674 C3.8201098,12.6313117 3.8364347,12.3725169 3.98993835,12.2045042 L4.05388964,12.1460715 L19.2291499,0.587152585 C19.2918444,0.539398512 19.3649927,0.508063836 19.4419791,0.495381128 L19.52,0.48899843 Z M18.8,2.422 L5.567,12.501 L18.8,21.703 L18.8,2.422 Z" id="Rectangle-3"></path>
            </g>
        </g>
    </g>
</svg>