<?xml version="1.0" encoding="UTF-8"?>
<svg width="16px" height="13px" viewBox="0 0 16 13" version="1.1" xmlns="http://www.w3.org/2000/svg" xmlns:xlink="http://www.w3.org/1999/xlink">
    <title>Path</title>
    <g id="🔹-S-/-Lytteoplevelse" stroke="none" stroke-width="1" fill="none" fill-rule="evenodd">
        <g id="mobile-maximized-player-settings-speed" transform="translate(-154.000000, -487.000000)" fill="#41A8E2" fill-rule="nonzero">
            <g id="Group-12" transform="translate(0.000000, 5.000000)">
                <g id="Group-11" transform="translate(153.998935, 364.000000)">
                    <g id="eva:checkmark-fill" transform="translate(0.000000, 118.956116)">
                        <path d="M5.8610651,12.0438841 C5.58390004,12.0429925 5.31953689,11.9271073 5.1310651,11.7238841 L0.271065103,6.55388414 C-0.107249951,6.15071627 -0.0871027648,5.51719919 0.316065103,5.13888414 C0.71923297,4.76056908 1.35275005,4.78071627 1.7310651,5.18388414 L5.8510651,9.57388414 L14.2610651,0.373884138 C14.4936166,0.0842989833 14.8675045,-0.0525484891 15.2320493,0.0184922226 C15.5965942,0.0895329344 15.8917384,0.356758096 15.9985367,0.712474071 C16.1053351,1.06819005 16.0061929,1.45379374 15.7410651,1.71388414 L6.6010651,11.7138841 C6.41435118,11.9208068 6.1497532,12.0404195 5.8710651,12.0438841 L5.8610651,12.0438841 Z" id="Path"></path>
                    </g>
                </g>
            </g>
        </g>
    </g>
</svg>