<?xml version="1.0" encoding="UTF-8"?>
<svg width="20px" height="24px" viewBox="0 0 20 24" version="1.1" xmlns="http://www.w3.org/2000/svg" xmlns:xlink="http://www.w3.org/1999/xlink">
    <title>Rectangle 3</title>
    <g id="🔹-S-/-Lytteoplevelse" stroke="none" stroke-width="1" fill="none" fill-rule="evenodd">
        <g id="mobile-maximized-player-light-image" transform="translate(-315.000000, -661.000000)" fill="#FFFFFF" fill-rule="nonzero">
            <g id="Group-4" transform="translate(40.000000, 661.000000)">
                <path d="M275.696471,0 C275.961567,0 276.176471,0.214903323 276.176471,0.480000007 L276.176471,23.52 C276.176471,23.7850967 275.961567,24 275.696471,24 L275.48,24 C275.214903,24 275,23.7850967 275,23.52 L275,0.480000007 C275,0.214903323 275.214903,0 275.48,0 L275.696471,0 Z M294.52,0.48899843 C294.755641,0.48899843 294.951624,0.658798587 294.992267,0.882717829 L295,0.968998437 L295,23.0815206 C295,23.1795018 294.970015,23.2751363 294.914072,23.3555773 C294.829985,23.4764885 294.700288,23.5468109 294.564294,23.5594832 L294.482256,23.5601121 C294.427479,23.555844 294.372953,23.5421259 294.321194,23.5185058 L294.245943,23.4755928 L279.070683,12.9219896 C279.029591,12.8934125 278.993222,12.8585842 278.962894,12.8187674 C278.82011,12.6313117 278.836435,12.3725169 278.989938,12.2045042 L279.05389,12.1460715 L294.22915,0.587152585 C294.291844,0.539398512 294.364993,0.508063836 294.441979,0.495381128 L294.52,0.48899843 Z M293.8,2.422 L280.567,12.501 L293.8,21.703 L293.8,2.422 Z" id="Rectangle-3" transform="translate(285.000000, 12.000000) scale(-1, 1) translate(-285.000000, -12.000000) "></path>
            </g>
        </g>
    </g>
</svg>