<?xml version="1.0" encoding="UTF-8"?>
<svg width="17px" height="24px" viewBox="0 0 17 24" version="1.1" xmlns="http://www.w3.org/2000/svg" xmlns:xlink="http://www.w3.org/1999/xlink">
    <title>Stroke 1</title>
    <g id="Flows-test" stroke="none" stroke-width="1" fill="none" fill-rule="evenodd">
        <g id="mobile-profile-menu-digital-plus-subscription" transform="translate(-109.000000, -604.000000)" fill="#000000" fill-rule="nonzero">
            <g id="menu" transform="translate(80.000000, 72.000000)">
                <g id="products" transform="translate(24.500000, 91.000000)">
                    <g id="Group-6" transform="translate(4.700000, 441.000000)">
                        <path d="M14.999933,0 C15.2944835,0 15.5394606,0.212249244 15.5902635,0.492147042 L15.5999303,0.599997319 L15.5999303,5.39997587 C15.5999303,5.73134524 15.3313023,5.99997319 14.999933,5.99997319 C14.7053824,5.99997319 14.4604053,5.78772395 14.4096024,5.50782615 L14.3999357,5.39997587 L14.3999357,1.19999464 L3.522,1.199 L9.23631031,3.64849668 C9.42540401,3.72953684 9.55750615,3.9004852 9.59139057,4.09882068 L9.5999571,4.19998123 L9.5999571,19.1999142 L14.3999357,19.1999142 L14.3999357,14.999933 C14.3999357,14.7053824 14.6121849,14.4604053 14.8920827,14.4096024 L14.999933,14.3999357 C15.2944835,14.3999357 15.5394606,14.6121849 15.5902635,14.8920827 L15.5999303,14.999933 L15.5999303,19.7999115 C15.5999303,20.0944621 15.387681,20.3394392 15.1077833,20.3902421 L14.999933,20.3999088 L9.5999571,20.3999088 L9.5999571,23.3998954 C9.5999571,23.8306428 9.15952854,24.1210597 8.76360926,23.95138 L8.76360926,23.95138 L0.363646796,20.3513961 C0.358335175,20.3491197 0.353068523,20.3467723 0.347847753,20.3443554 C0.329447731,20.3359754 0.311638663,20.3265839 0.294386291,20.3163525 C0.283758177,20.3099733 0.273477242,20.3034551 0.263432639,20.2966515 C0.244115795,20.2835971 0.225344109,20.2691802 0.207493485,20.2537276 C0.202123047,20.249098 0.197037049,20.2445394 0.192034949,20.2398998 C0.175947212,20.2249468 0.16070954,20.2091828 0.146363212,20.1926255 C0.138111133,20.1830806 0.130308712,20.1734716 0.122813335,20.1636357 C0.0666066184,20.0901563 0.0269283015,20.002864 0.0096667601,19.9077618 L0,19.7999115 L0,0.599997319 L0.00656452683,0.509958764 C0.0113191785,0.477780667 0.0185847321,0.44661222 0.0281251515,0.416609065 C0.030461837,0.410632316 0.0324173617,0.40484792 0.034457918,0.399103807 C0.0618160812,0.320231123 0.105563326,0.249841006 0.160717423,0.1909532 C0.16899244,0.182420495 0.177284796,0.174028805 0.185816844,0.165886095 C0.197945954,0.154172771 0.210687768,0.143050756 0.223862105,0.132482989 C0.233870078,0.124434003 0.244544828,0.116389764 0.255488095,0.108701876 C0.268823367,0.099441705 0.281834794,0.0910688236 0.295149259,0.0832006544 C0.305285883,0.0770913724 0.316445233,0.0709425306 0.327813941,0.0651455078 C0.344353615,0.0567965428 0.360537893,0.0494243053 0.377037896,0.0427710722 C0.388078062,0.038364092 0.399572576,0.0341573621 0.411225427,0.0302981709 C0.431685047,0.0233203776 0.45267795,0.0175284776 0.474002372,0.0128910203 C0.479876519,0.0119936483 0.485995442,0.0107833079 0.492147042,0.0096667601 C0.52258702,0.00371802638 0.551364656,0.000617387497 0.580468541,-0.000332771419 L14.999933,0 Z M1.19999464,1.50959325 L1.19999464,19.4039133 L8.39996247,22.4902995 L8.39996247,4.59477947 L1.19999464,1.50959325 Z M15.4241951,7.37570297 C15.6324738,7.58398166 15.6556159,7.9072895 15.4936214,8.14113023 L15.4241951,8.22422732 L14.0479464,9.59896783 L16.1999276,9.5999571 C16.531297,9.5999571 16.7999249,9.86858505 16.7999249,10.1999544 C16.7999249,10.494505 16.5876757,10.7394821 16.3077779,10.790285 L16.1999276,10.7999517 L14.0479464,10.7989678 L15.4241951,12.1756815 C15.6324738,12.3839602 15.6556159,12.7072681 15.4936214,12.9411088 L15.4241951,13.0242059 C15.2159165,13.2324846 14.8926086,13.2556266 14.6587679,13.0936321 L14.5756708,13.0242059 L12.1756815,10.6242166 L12.113,10.55 L12.0953264,10.5247752 L12.0953264,10.5247752 L12.0759113,10.4924128 L12.0759113,10.4924128 L12.0582338,10.4582463 C12.0537913,10.4489673 12.0497896,10.4399896 12.0460192,10.4309383 C12.0377626,10.4112151 12.0303536,10.3903696 12.0240985,10.3690309 C12.0204113,10.3562387 12.0172218,10.3438358 12.0144345,10.331361 C12.009965,10.3117098 12.0064288,10.2909846 12.003983,10.2699268 C12.0023246,10.2553012 12.0012002,10.2412987 12.000565,10.2272782 C12.0001657,10.2188386 11.9999464,10.2094221 11.9999464,10.1999544 L12.000565,10.1726306 L12.0018847,10.1516168 L12.0018847,10.1516168 L12.003,10.132 L12.0144908,10.0680546 L12.0144908,10.0680546 C12.0169906,10.0571078 12.019885,10.0457281 12.0231176,10.0344248 C12.0294996,10.0120295 12.0370591,9.99050114 12.0457697,9.96957205 L12.0518804,9.95537469 L12.0518804,9.95537469 L12.0585135,9.94102132 C12.0676068,9.92211388 12.0775385,9.90391072 12.0883532,9.88630835 C12.0937769,9.87735591 12.0998724,9.86800318 12.1062553,9.85878934 L12.113029,9.84929193 C12.1308182,9.82463392 12.1504344,9.80138134 12.1716791,9.77973255 L14.5756708,7.37570297 C14.8099843,7.14138945 15.1898816,7.14138945 15.4241951,7.37570297 Z" id="Stroke-1"></path>
                    </g>
                </g>
            </g>
        </g>
    </g>
</svg>