<?xml version="1.0" encoding="UTF-8"?>
<svg width="14px" height="19px" viewBox="0 0 14 19" version="1.1" xmlns="http://www.w3.org/2000/svg" xmlns:xlink="http://www.w3.org/1999/xlink">
    <title>Rectangle 5</title>
    <g id="🔹-S-/-Lytteoplevelse" stroke="none" stroke-width="1" fill="none" fill-rule="evenodd">
        <g id="mobile-" transform="translate(-329.000000, -763.000000)" fill="#FFFFFF">
            <g id="Group" transform="translate(8.000000, 736.000000)">
                <path d="M321.266667,27 L323.843452,27 C323.990728,27 324.110119,27.1193907 324.110119,27.2666667 L324.110119,45.7333333 C324.110119,45.8806093 323.990728,46 323.843452,46 L321.266667,46 C321.119391,46 321,45.8806093 321,45.7333333 L321,27.2666667 C321,27.1193907 321.119391,27 321.266667,27 Z M331.219048,27 L333.795833,27 C333.943109,27 334.0625,27.1193907 334.0625,27.2666667 L334.0625,45.7333333 C334.0625,45.8806093 333.943109,46 333.795833,46 L331.219048,46 C331.071772,46 330.952381,45.8806093 330.952381,45.7333333 L330.952381,27.2666667 C330.952381,27.1193907 331.071772,27 331.219048,27 Z" id="Rectangle-5"></path>
            </g>
        </g>
    </g>
</svg>