<?xml version="1.0" encoding="UTF-8"?>
<svg width="18px" height="21px" viewBox="0 0 18 21" version="1.1" xmlns="http://www.w3.org/2000/svg" xmlns:xlink="http://www.w3.org/1999/xlink">
    <title>icon_podcast</title>
    <g id="Flows-test" stroke="none" stroke-width="1" fill="none" fill-rule="evenodd">
        <g id="mobile-burger-menu-light-background" transform="translate(-107.000000, -401.000000)" fill="#000000" fill-rule="nonzero">
            <g id="Group-3" transform="translate(-16.000000, 58.000000)">
                <g id="menu" transform="translate(96.000000, 14.000000)">
                    <g id="products" transform="translate(24.000000, 290.000000)">
                        <g id="Group-2" transform="translate(0.000000, 1.000000)">
                            <g id="Podcast" transform="translate(3.500000, 38.000000)">
                                <path d="M16.5,9 C16.7761424,9 17,9.22385763 17,9.5 C17,14.0190587 13.4557017,17.7254131 9.0007425,17.9854257 L9,20 L10.5,20 C10.7761424,20 11,20.2238576 11,20.5 C11,20.7454599 10.8231248,20.9496084 10.5898756,20.9919443 L10.5,21 L6.5,21 C6.22385763,21 6,20.7761424 6,20.5 C6,20.2545401 6.17687516,20.0503916 6.41012437,20.0080557 L6.5,20 L8,20 L8.0002537,17.9854838 C3.54482669,17.7259656 0,14.0193956 0,9.5 C0,9.22385763 0.223857625,9 0.5,9 C0.776142375,9 1,9.22385763 1,9.5 C1,13.6348576 4.36514237,17 8.5,17 C12.6348576,17 16,13.6348576 16,9.5 C16,9.22385763 16.2238576,9 16.5,9 Z M8.5,0 C11.4630657,0 13.879519,2.34418334 13.9956321,5.27882237 L14,5.5 L14,9.5 C14,12.5371424 11.5371424,15 8.5,15 C5.53693427,15 3.12048103,12.6558167 3.00436794,9.72117763 L3,9.5 L3,5.5 C3,2.46285763 5.46285763,0 8.5,0 Z M8.5,1 C6.08613831,1 4.11553443,2.9016364 4.004899,5.28819857 L4,5.5 L4,9.5 C4,11.9848576 6.01514237,14 8.5,14 C10.9138617,14 12.8844656,12.0983636 12.995101,9.71180143 L13,9.5 L13,5.5 C13,3.01514237 10.9848576,1 8.5,1 Z" id="icon_podcast"></path>
                            </g>
                        </g>
                    </g>
                </g>
            </g>
        </g>
    </g>
</svg>