<?xml version="1.0" encoding="UTF-8"?>
<svg width="22px" height="22px" viewBox="0 0 22 22" version="1.1" xmlns="http://www.w3.org/2000/svg" xmlns:xlink="http://www.w3.org/1999/xlink">
    <title>Group 14</title>
    <g id="Flows-test" stroke="none" stroke-width="1" fill="none" fill-rule="evenodd">
        <g id="Group-14">
            <circle id="Oval-Copy" fill="#333333" cx="11" cy="11" r="11"></circle>
            <path d="M5.5,11.3261194 C5.5,11.6221393 5.6,11.8758706 5.8,12.0873134 C6.825,13.09801 8.10625,14.3613806 8.875,15.119403 C9.075,15.3308458 9.325,15.4365672 9.625,15.4365672 C9.925,15.4365672 10.175,15.3308458 10.375,15.119403 C12.4791667,13.0261194 15.109375,10.4095149 16.6875,8.83955224 C16.8958333,8.63656716 17,8.38706468 17,8.09104478 C17,7.79502488 16.8958333,7.54552239 16.6875,7.34253731 C16.4791667,7.13955224 16.2291667,7.0380597 15.9375,7.0380597 C15.6458333,7.0380597 15.3958333,7.14378109 15.1875,7.35522388 C13.3333333,9.19477612 11.015625,11.4942164 9.625,12.8738806 C9.046875,12.2998134 7.890625,11.1516791 7.3125,10.5776119 C7.10416667,10.3746269 6.85416667,10.2731343 6.5625,10.2731343 C6.27083333,10.2731343 6.02083333,10.3746269 5.8125,10.5776119 C5.60416667,10.780597 5.5,11.0300995 5.5,11.3261194 L5.5,11.3261194 Z" id="path__0-copy" fill="#FFFFFF" fill-rule="nonzero"></path>
        </g>
    </g>
</svg>