<?xml version="1.0" encoding="UTF-8"?>
<svg width="26px" height="24px" viewBox="0 0 26 24" version="1.1" xmlns="http://www.w3.org/2000/svg" xmlns:xlink="http://www.w3.org/1999/xlink">
    <title>Group 13 Copy</title>
    <g id="Test-(Maze)" stroke="none" stroke-width="1" fill="none" fill-rule="evenodd">
        <g id="mobile_WA_cookies_consent" transform="translate(-174.000000, -426.000000)">
            <g id="Group-13-Copy" transform="translate(175.000000, 427.000000)">
                <path d="M0,22 L0,21.7 C9.76974179e-16,20.0431458 1.34314575,18.7 3,18.7 L15.7,18.7 C17.3568542,18.7 18.7,20.0431458 18.7,21.7 L18.7,22 L18.7,22" id="Rectangle-4" stroke="#000000"></path>
                <path d="M17.3,6.67857143 L14.5,6.67857143 L14.5,0 L3.3,0 L3.3,18.7 L14.5,18.7 L14.5,15.9056857 C11.7,16.0285714 11.55,12.9161681 12.1,12.8718538 C12.65,12.8275395 14.5,12.2254522 14.5,12.1443143 L14.5,9.35 L17.3,9.35 C18.0742,9.35 18.7,8.7516 18.7,8.01428571 C18.7,7.27697143 18.0742,6.67857143 17.3,6.67857143 Z" id="Stroke-8" stroke="#000000"></path>
                <path d="M20.0278375,12.65 C20.8869375,13.5613508 20.8869375,15.0398161 20.0278375,15.95" id="Stroke-9" stroke="#000000" stroke-linecap="round"></path>
                <path d="M23.3278375,12.1 C24.1869375,13.3151344 24.1869375,15.2864215 23.3278375,16.5" id="Stroke-11" stroke="#000000" stroke-linecap="round"></path>
                <path d="M9.46,2.64 C9.09549207,2.64 8.8,2.93549207 8.8,3.3 C8.8,5.12310793 10.2768921,6.6 12.1,6.6 C12.4645079,6.6 12.76,6.30450793 12.76,5.94 C12.76,5.57549207 12.4645079,5.28 12.1,5.28 C11.0059079,5.28 10.12,4.39409207 10.12,3.3 C10.12,2.93549207 9.82450793,2.64 9.46,2.64 Z" id="Stroke-1" fill="#000000" fill-rule="nonzero"></path>
                <path d="M16.0285714,18.7 L2.67142857,18.7 C1.1968,18.7 0,20.1784 0,22 L18.7,22 C18.7,20.1784 17.5032,18.7 16.0285714,18.7" id="Fill-3" stroke="#000000"></path>
                <path d="M16.0285714,18.7 L2.67142857,18.7 C1.1968,18.7 0,20.1784 0,22 L18.7,22 C18.7,20.1784 17.5032,18.7 16.0285714,18.7" id="Fill-3" stroke="#000000"></path>
                <path d="M16.0285714,18.7 L2.67142857,18.7 C1.1968,18.7 0,20.1784 0,22 L18.7,22 C18.7,20.1784 17.5032,18.7 16.0285714,18.7" id="Fill-3" fill="#000000"></path>
            </g>
        </g>
    </g>
</svg>