<svg xmlns="http://www.w3.org/2000/svg" viewBox="0 0 532 434.53"><g id="Layer_2" data-name="Layer 2"><g id="Layer_1-2" data-name="Layer 1"><path d="M443.52,217.24a84.15,84.15,0,0,0-67.2-82.32V299.56A84.14,84.14,0,0,0,443.52,217.24Z"/><path d="M375.76,45.32V90.13c62.72,8.4,111.44,62.16,111.44,127.12S438.48,336,375.76,344.37v44.8C463.12,380.76,532,306.85,532,217.25S463.12,53.73,375.76,45.33Z"/><path d="M317,2.76c-8.4-4.48-19-3.35-26.88,2.24L138.32,119.8H25.76A25.69,25.69,0,0,0,0,145.56V288.92a25.7,25.7,0,0,0,25.76,25.77H138.32l152.32,114.8A24.6,24.6,0,0,0,317,431.73a26.47,26.47,0,0,0,14-23v-383c0-10.08-5-19-14-23Z"/></g></g></svg>