<?xml version="1.0" encoding="UTF-8"?>
<svg width="16px" height="21px" viewBox="0 0 16 21" version="1.1" xmlns="http://www.w3.org/2000/svg" xmlns:xlink="http://www.w3.org/1999/xlink">
    <title>Stroke 19</title>
    <g id="Flows-test" stroke="none" stroke-width="1" fill="none" fill-rule="evenodd">
        <g id="mobile-profile-menu-digital-plus-subscription" transform="translate(-107.000000, -335.000000)" fill="#000000" fill-rule="nonzero">
            <g id="Group-9" transform="translate(80.000000, 205.500000)">
                <g id="Group-8" transform="translate(27.000000, 129.500000)">
                    <path d="M10.1333333,0 C13.3729519,0 16,2.62704813 16,5.86666667 L16,5.86666667 L16,19.7333333 C16,20.0278852 15.7612185,20.2666667 15.4666667,20.2666667 L15.4666667,20.2666667 L0.533333333,20.2666667 C0.238781467,20.2666667 0,20.0278852 0,19.7333333 L0,19.7333333 L0,0.533333333 C0,0.238781467 0.238781467,0 0.533333333,0 L0.533333333,0 Z M9.599,1.066 L1.06666667,1.06666667 L1.06666667,19.2 L14.9333333,19.2 L14.933,6.399 L10.1333333,6.4 C9.87150945,6.4 9.65375107,6.21133316 9.60859271,5.96253401 L9.6,5.86666667 L9.599,1.066 Z M6.93333333,16 C7.2278852,16 7.46666667,16.2387815 7.46666667,16.5333333 C7.46666667,16.7951572 7.27799983,17.0129156 7.02920067,17.058074 L6.93333333,17.0666667 L3.73333333,17.0666667 C3.43878147,17.0666667 3.2,16.8278852 3.2,16.5333333 C3.2,16.2715095 3.38866684,16.0537511 3.63746599,16.0085927 L3.73333333,16 L6.93333333,16 Z M12.2666667,12.8 C12.5612185,12.8 12.8,13.0387815 12.8,13.3333333 C12.8,13.5951572 12.6113332,13.8129156 12.362534,13.858074 L12.2666667,13.8666667 L3.73333333,13.8666667 C3.43878147,13.8666667 3.2,13.6278852 3.2,13.3333333 C3.2,13.0715095 3.38866684,12.8537511 3.63746599,12.8085927 L3.73333333,12.8 L12.2666667,12.8 Z M12.2666667,9.6 C12.5612185,9.6 12.8,9.83878147 12.8,10.1333333 C12.8,10.3951572 12.6113332,10.6129156 12.362534,10.658074 L12.2666667,10.6666667 L3.73333333,10.6666667 C3.43878147,10.6666667 3.2,10.4278852 3.2,10.1333333 C3.2,9.87150945 3.38866684,9.65375107 3.63746599,9.60859271 L3.73333333,9.6 L12.2666667,9.6 Z M6.93333333,6.4 C7.2278852,6.4 7.46666667,6.63878147 7.46666667,6.93333333 C7.46666667,7.19515721 7.27799983,7.4129156 7.02920067,7.45807395 L6.93333333,7.46666667 L3.73333333,7.46666667 C3.43878147,7.46666667 3.2,7.2278852 3.2,6.93333333 C3.2,6.67150945 3.38866684,6.45375107 3.63746599,6.40859271 L3.73333333,6.4 L6.93333333,6.4 Z M14.9040064,5.33318097 C14.6579145,3.1087103 12.8910695,1.34194099 10.6665638,1.09596535 L10.6666667,5.33333333 Z M6.93333333,3.2 C7.2278852,3.2 7.46666667,3.43878147 7.46666667,3.73333333 C7.46666667,3.99515721 7.27799983,4.2129156 7.02920067,4.25807395 L6.93333333,4.26666667 L3.73333333,4.26666667 C3.43878147,4.26666667 3.2,4.0278852 3.2,3.73333333 C3.2,3.47150945 3.38866684,3.25375107 3.63746599,3.20859271 L3.73333333,3.2 L6.93333333,3.2 Z" id="Stroke-19"></path>
                </g>
            </g>
        </g>
    </g>
</svg>