<?xml version="1.0" encoding="UTF-8"?>
<svg width="23px" height="18px" viewBox="0 0 23 18" version="1.1" xmlns="http://www.w3.org/2000/svg" xmlns:xlink="http://www.w3.org/1999/xlink">
    <title>playlist-add copy</title>
    <g id="Flows-test" stroke="none" stroke-width="1" fill="none" fill-rule="evenodd">
        <g id="Podcast-chanel-page" transform="translate(-20.000000, -1077.000000)">
            <g id="playlist-add-copy" transform="translate(17.000000, 1070.000000)">
                <g id="ic:baseline-playlist-add">
                    <rect id="ViewBox" x="0" y="0" width="29" height="29"></rect>
                    <path d="M16.9166667,12.0833333 L3.625,12.0833333 L3.625,13.2916667 L16.9166667,13.2916667 L16.9166667,12.0833333 Z M16.9166667,7.25 L3.625,7.25 L3.625,8.45833333 L16.9166667,8.45833333 L16.9166667,7.25 Z M3.625,18.125 L12.0833333,18.125 L12.0833333,16.9166667 L3.625,16.9166667 L3.625,18.125 Z" id="Shape" fill="#000000" fill-rule="nonzero"></path>
                </g>
                <path d="M14.6254963,18.0236627 C17.9081422,23.5933065 17.7345928,24.8767079 19.4874548,22.3018016 C20.3466685,21.0396401 21.668749,18.8504273 24.0876435,15.7845639 C24.4280187,15.3531503 24.7901117,14.9043784 25.1756887,14.4383886" id="Path-10" stroke="#000000"></path>
            </g>
        </g>
    </g>
</svg>