<?xml version="1.0" encoding="UTF-8"?>
<svg width="30px" height="22px" viewBox="0 0 30 22" version="1.1" xmlns="http://www.w3.org/2000/svg" xmlns:xlink="http://www.w3.org/1999/xlink">
    <title>Rectangle 2</title>
    <g id="🔹-S-/-Lytteoplevelse" stroke="none" stroke-width="1" fill="none" fill-rule="evenodd">
        <g id="Mobile-001" transform="translate(-28.000000, -755.000000)" fill="#FFFFFF">
            <path d="M31.6734503,773.764576 L39.071009,773.764576 L39.071009,773.764576 L39.071009,775.058694 L31.6734503,775.058694 C31.4425402,775.058694 31.2553507,774.871505 31.2553507,774.640595 L31.2553507,774.182676 C31.2553507,773.951766 31.4425402,773.764576 31.6734503,773.764576 Z M28.0349177,757.545646 C28.0349177,757.225907 28.263815,756.959981 28.5656669,756.904834 L28.6819765,756.894341 L39.0349177,756.894341 C39.0349177,756.894341 39.0349177,758.19695 39.0349177,758.19695 L33.8584471,758.19695 L29.3289059,758.19695 L29.3289059,769.920438 L39.0349177,769.920438 L39.0349177,771.223048 L28.6819765,771.223048 C28.3643225,771.223048 28.1001304,770.992648 28.0453427,770.688816 L28.0349177,770.571743 L28.0349177,757.545646 Z M57.3539418,755 C57.6736803,755 57.9396061,755.228897 57.9947533,755.530749 C58.0017489,769.412211 58.0017489,776.352941 57.9947533,776.352941 C57.9877577,776.352941 57.5570523,776.137212 56.702637,775.705753 L56.702637,756.293988 L42.3739301,756.293988 L42.3739301,775.705753 L56.702637,775.705753 L57.9947533,776.352941 C57.9947533,776.670595 57.7748474,776.934787 57.4710147,776.989575 L57.3539418,777 L41.7226253,777 C41.4028868,777 41.136961,776.771103 41.0818138,776.469251 L41.0713204,776.352941 L41.0713204,755.647059 C41.0713204,755.329405 41.3017197,755.065213 41.6055524,755.010425 L41.7226253,755 L57.3539418,755 Z M49.5382835,764.058694 C47.0203395,764.058694 44.9791495,766.086577 44.9791495,768.588106 C44.9791495,771.089635 47.0203395,773.117518 49.5382835,773.117518 C52.0562276,773.117518 54.0974176,771.089635 54.0974176,768.588106 C54.0974176,766.086577 52.0562276,764.058694 49.5382835,764.058694 Z M49.5382835,765.191047 C51.4267425,765.191047 52.9576341,766.711958 52.9576341,768.588106 C52.9576341,770.464253 51.4267425,771.985165 49.5382835,771.985165 C47.6498246,771.985165 46.118933,770.464253 46.118933,768.588106 C46.118933,766.711958 47.6498246,765.191047 49.5382835,765.191047 Z M49.5382835,759.529282 C48.818871,759.529282 48.2356738,760.108677 48.2356738,760.8234 C48.2356738,761.538123 48.818871,762.117518 49.5382835,762.117518 C50.2576961,762.117518 50.8408933,761.538123 50.8408933,760.8234 C50.8408933,760.108677 50.2576961,759.529282 49.5382835,759.529282 Z" id="Rectangle-2"></path>
        </g>
    </g>
</svg>