<?xml version="1.0" encoding="UTF-8"?>
<svg width="22px" height="17px" viewBox="0 0 22 17" version="1.1" xmlns="http://www.w3.org/2000/svg" xmlns:xlink="http://www.w3.org/1999/xlink">
    <title>icon_e-paper</title>
    <g id="Flows-test" stroke="none" stroke-width="1" fill="none" fill-rule="evenodd">
        <g id="mobile-burger-menu-light-background" transform="translate(-105.000000, -481.000000)" fill="#000000" fill-rule="nonzero">
            <g id="Group-3" transform="translate(-16.000000, 58.000000)">
                <g id="menu" transform="translate(96.000000, 14.000000)">
                    <g id="products" transform="translate(24.000000, 290.000000)">
                        <g id="Group-2" transform="translate(0.000000, 1.000000)">
                            <g id="E-avis" transform="translate(1.500000, 117.000000)">
                                <path d="M0.5,18 C0.223857625,18 0,17.7761424 0,17.5 L0,17.5 L0,1.5 C0,1.22385763 0.223857625,1 0.5,1 L0.5,1 L20.5,1 C20.7761424,1 21,1.22385763 21,1.5 L21,1.5 L21,12.569 C21,15.5681424 18.5681424,18 15.569,18 L15.569,18 Z M20,2 L8,2 L8,17 L15.569,17 C17.9459474,17 19.8862427,15.1276175 19.9951764,12.777562 L19.9951764,12.777562 L20,12.569 L20,2 Z M7,2 L1,2 L1,17 L7,17 L7,2 Z M13.5,14 C13.7761424,14 14,14.2238576 14,14.5 C14,14.7454599 13.8231248,14.9496084 13.5898756,14.9919443 L13.5,15 L9.5,15 C9.22385763,15 9,14.7761424 9,14.5 C9,14.2545401 9.17687516,14.0503916 9.41012437,14.0080557 L9.5,14 L13.5,14 Z M18.5,10 C18.7761424,10 19,10.2238576 19,10.5 C19,10.7454599 18.8231248,10.9496084 18.5898756,10.9919443 L18.5,11 L9.5,11 C9.22385763,11 9,10.7761424 9,10.5 C9,10.2545401 9.17687516,10.0503916 9.41012437,10.0080557 L9.5,10 L18.5,10 Z M18.5,4 C18.7761424,4 19,4.22385763 19,4.5 C19,4.74545989 18.8231248,4.94960837 18.5898756,4.99194433 L18.5,5 L9.5,5 C9.22385763,5 9,4.77614237 9,4.5 C9,4.25454011 9.17687516,4.05039163 9.41012437,4.00805567 L9.5,4 L18.5,4 Z M18.5,7 C18.7761424,7 19,7.22385763 19,7.5 C19,7.74545989 18.8231248,7.94960837 18.5898756,7.99194433 L18.5,8 L9.5,8 C9.22385763,8 9,7.77614237 9,7.5 C9,7.25454011 9.17687516,7.05039163 9.41012437,7.00805567 L9.5,7 L18.5,7 Z M5.5,4 C5.77614237,4 6,4.22385763 6,4.5 C6,4.74545989 5.82312484,4.94960837 5.58987563,4.99194433 L5.5,5 L2.5,5 C2.22385763,5 2,4.77614237 2,4.5 C2,4.25454011 2.17687516,4.05039163 2.41012437,4.00805567 L2.5,4 L5.5,4 Z M5.5,7 C5.77614237,7 6,7.22385763 6,7.5 C6,7.74545989 5.82312484,7.94960837 5.58987563,7.99194433 L5.5,8 L2.5,8 C2.22385763,8 2,7.77614237 2,7.5 C2,7.25454011 2.17687516,7.05039163 2.41012437,7.00805567 L2.5,7 L5.5,7 Z M5.5,10 C5.77614237,10 6,10.2238576 6,10.5 C6,10.7454599 5.82312484,10.9496084 5.58987563,10.9919443 L5.5,11 L2.5,11 C2.22385763,11 2,10.7761424 2,10.5 C2,10.2545401 2.17687516,10.0503916 2.41012437,10.0080557 L2.5,10 L5.5,10 Z M5.5,14 C5.77614237,14 6,14.2238576 6,14.5 C6,14.7454599 5.82312484,14.9496084 5.58987563,14.9919443 L5.5,15 L2.5,15 C2.22385763,15 2,14.7761424 2,14.5 C2,14.2545401 2.17687516,14.0503916 2.41012437,14.0080557 L2.5,14 L5.5,14 Z M20.5,12 C20.7761424,12 21,12.2238576 21,12.5 C21,12.7454599 20.8231248,12.9496084 20.5898756,12.9919443 L20.5,13 L16,13 L16,17.5 C16,17.7454599 15.8231248,17.9496084 15.5898756,17.9919443 L15.5,18 C15.2545401,18 15.0503916,17.8231248 15.0080557,17.5898756 L15,17.5 L15,12.5 C15,12.2545401 15.1768752,12.0503916 15.4101244,12.0080557 L15.5,12 L20.5,12 Z" id="icon_e-paper"></path>
                            </g>
                        </g>
                    </g>
                </g>
            </g>
        </g>
    </g>
</svg>