<?xml version="1.0" encoding="UTF-8"?>
<svg width="25px" height="29px" viewBox="0 0 25 29" version="1.1" xmlns="http://www.w3.org/2000/svg" xmlns:xlink="http://www.w3.org/1999/xlink">
    <title>Group 7 2</title>
    <g id="🔹-S-/-Lytteoplevelse" stroke="none" stroke-width="1" fill="none" fill-rule="evenodd">
        <g id="Mobile-001" transform="translate(-256.000000, -657.000000)" fill="#FFFFFF">
            <g id="Group-7" transform="translate(268.500000, 671.500000) scale(-1, 1) translate(-268.500000, -671.500000) translate(257.000000, 658.000000)">
                <path d="M13.4137372,5.53237393e-05 L13.4872801,0.00911614623 C13.6342052,0.0430046793 13.7508816,0.167025684 13.7878737,0.32863176 C13.8248659,0.490237836 13.7756981,0.661138776 13.6612026,0.768924265 L13.6612026,0.768924265 L11.501,3.28 L11.7919444,3.28415943 C17.9986525,3.44436706 23,8.70064023 23,15.1389306 C23,21.6795098 17.8411394,27 11.5001366,27 C5.15913383,27 0,21.6792281 0,15.1389306 C0,14.014927 0.15244634,12.902758 0.452694597,11.833419 C0.494494399,11.683796 0.645301531,11.5978544 0.791191039,11.6412479 C0.935987742,11.6846413 1.01958735,11.8407451 0.977514343,11.9903681 C0.691472555,13.0087057 0.546402651,14.0681826 0.546402651,15.1389306 C0.546402651,21.3681476 5.46020169,26.4364485 11.5001366,26.4364485 C17.5397983,26.4364485 22.4535973,21.3684294 22.4535973,15.1389306 C22.4535973,8.93572809 17.579262,3.88446183 11.5724892,3.84419112 L13.6612026,6.274554 C13.7756981,6.38233948 13.8248659,6.55324043 13.7878737,6.7148465 C13.7508816,6.87645258 13.6342052,7.00047358 13.4872801,7.03436211 C13.340355,7.06825065 13.1889013,7.0060743 13.0970897,6.87417704 L13.0970897,6.87417704 L10.4604753,3.82155065 C10.4136557,3.76830167 10.3798815,3.70262056 10.3623687,3.6307615 C10.3551226,3.59956431 10.3510098,3.56757088 10.3501054,3.53536693 C10.3476728,3.41868477 10.3874269,3.30578739 10.4604753,3.22192761 L10.4604753,3.22192761 L13.0970897,0.169301225 C13.1889013,0.0374039624 13.340355,-0.0247723868 13.4872801,0.00911614623 Z" id="Path-2" stroke="#FFFFFF" stroke-width="0.5" fill-rule="nonzero"></path>
                <text id="15" transform="translate(11.500000, 16.000000) scale(-1, 1) translate(-11.500000, -16.000000) " font-family="WEASans-Medium, WEA Sans" font-size="11" font-weight="400" letter-spacing="0.4">
                    <tspan x="6" y="19.5">15</tspan>
                </text>
            </g>
        </g>
    </g>
</svg>