<?xml version="1.0" encoding="UTF-8"?>
<svg width="25px" height="19px" viewBox="0 0 25 19" version="1.1" xmlns="http://www.w3.org/2000/svg" xmlns:xlink="http://www.w3.org/1999/xlink">
    <title>icon_newsletter</title>
    <g id="Flows-test" stroke="none" stroke-width="1" fill="none" fill-rule="evenodd">
        <g id="mobile-burger-menu-light-background" transform="translate(-105.000000, -441.000000)" fill="#000000" fill-rule="nonzero">
            <g id="Group-3" transform="translate(-16.000000, 58.000000)">
                <g id="menu" transform="translate(96.000000, 14.000000)">
                    <g id="products" transform="translate(24.000000, 290.000000)">
                        <g id="Group-2" transform="translate(0.000000, 1.000000)">
                            <g id="Nyhedsbreve" transform="translate(1.500000, 78.000000)">
                                <path d="M0.00776285114,3.91502067 L0.000873019662,4 C0.000873019662,3.96282005 0.00493112645,3.92658791 0.0126285696,3.89172237 C0.0172265798,3.87081892 0.0233792129,3.84993158 0.0308172121,3.82951782 C0.0324763619,3.82459709 0.0342817153,3.8198527 0.0361565759,3.81514353 C0.0442133162,3.79526773 0.0534082777,3.77579861 0.0637885445,3.75696801 C0.0678512261,3.74970221 0.0722132852,3.7423198 0.0767564552,3.73506236 C0.0865009293,3.71900183 0.0972243045,3.7035969 0.108789424,3.68881141 C0.114887829,3.68201762 0.120773424,3.67501275 0.12684364,3.66817547 C0.197571878,3.58607546 0.296236821,3.52653799 0.414840995,3.50695512 L0.50087302,3.5 L14.500873,3.5 C14.7770154,3.5 15.000873,3.72385763 15.000873,4 C15.000873,4.24545989 14.8239979,4.44960837 14.5907487,4.49194433 L14.500873,4.5 L1.70787302,4.5 L10.500873,13.293 L17.1473196,6.64644661 C17.320886,6.47288026 17.5903104,6.45359511 17.7851785,6.58859116 L17.8544264,6.64644661 C18.0279928,6.82001296 18.0472779,7.08943736 17.9122819,7.2843055 L17.8544264,7.35355339 L10.8544264,14.3535534 C10.6808601,14.5271197 10.4114357,14.5464049 10.2165675,14.4114088 L10.1473196,14.3535534 L1,5.206 L1.00087302,17.5 L20.000873,17.5 L20.000873,10 C20.000873,9.75454011 20.1777482,9.55039163 20.4109974,9.50805567 L20.500873,9.5 C20.7463329,9.5 20.9504814,9.67687516 20.9928174,9.91012437 L21.000873,10 L21.000873,18 C21.000873,18.2454599 20.8239979,18.4496084 20.5907487,18.4919443 L20.500873,18.5 L0.50087302,18.5 C0.255413131,18.5 0.0512646493,18.3231248 0.00892868908,18.0898756 L0.000873019662,18 L3.91668685e-13,3.99226958 C0.000592300078,3.96629558 0.0032136941,3.9404644 0.00776285114,3.91502067 Z M23.500873,6.5 C23.7770154,6.5 24.000873,6.72385763 24.000873,7 C24.000873,7.24545989 23.8239979,7.44960837 23.5907487,7.49194433 L23.500873,7.5 L20.500873,7.5 C20.2247306,7.5 20.000873,7.27614237 20.000873,7 C20.000873,6.75454011 20.1777482,6.55039163 20.4109974,6.50805567 L20.500873,6.5 L23.500873,6.5 Z M22.0970264,2.40384661 C22.2705928,2.57741296 22.2898779,2.84683736 22.1548819,3.0417055 L22.0970264,3.11095339 L19.9760264,5.23195339 C19.7807643,5.42721554 19.4641818,5.42721554 19.2689196,5.23195339 C19.0953533,5.05838704 19.0760681,4.78896264 19.2110642,4.5940945 L19.2689196,4.52484661 L21.3899196,2.40384661 C21.5851818,2.20858446 21.9017643,2.20858446 22.0970264,2.40384661 Z M17.500873,0.5 C17.7463329,0.5 17.9504814,0.676875161 17.9928174,0.910124368 L18.000873,1 L18.000873,4 C18.000873,4.27614237 17.7770154,4.5 17.500873,4.5 C17.2554131,4.5 17.0512646,4.32312484 17.0089287,4.08987563 L17.000873,4 L17.000873,1 C17.000873,0.723857625 17.2247306,0.5 17.500873,0.5 Z" id="icon_newsletter"></path>
                            </g>
                        </g>
                    </g>
                </g>
            </g>
        </g>
    </g>
</svg>