<?xml version="1.0" encoding="UTF-8"?>
<svg width="71px" height="70px" viewBox="0 0 71 70" version="1.1" xmlns="http://www.w3.org/2000/svg" xmlns:xlink="http://www.w3.org/1999/xlink">
    <title>Group 13</title>
    <g id="🔹-S-/-Lytteoplevelse" stroke="none" stroke-width="1" fill="none" fill-rule="evenodd">
        <g id="Group-13" transform="translate(0.500000, 0.000000)">
            <circle id="Oval" stroke="#FFFFFF" cx="35" cy="35" r="34.5"></circle>
            <path d="M27,23 L30.2,23 C30.4209139,23 30.6,23.1790861 30.6,23.4 L30.6,46.6 C30.6,46.8209139 30.4209139,47 30.2,47 L27,47 C26.7790861,47 26.6,46.8209139 26.6,46.6 L26.6,23.4 C26.6,23.1790861 26.7790861,23 27,23 Z M39.8,23 L43,23 C43.2209139,23 43.4,23.1790861 43.4,23.4 L43.4,46.6 C43.4,46.8209139 43.2209139,47 43,47 L39.8,47 C39.5790861,47 39.4,46.8209139 39.4,46.6 L39.4,23.4 C39.4,23.1790861 39.5790861,23 39.8,23 Z" id="Rectangle-5" fill="#FFFFFF"></path>
        </g>
    </g>
</svg>