<?xml version="1.0" encoding="UTF-8"?>
<svg width="25px" height="41px" viewBox="0 0 25 41" version="1.1" xmlns="http://www.w3.org/2000/svg" xmlns:xlink="http://www.w3.org/1999/xlink">
    <title>Group 19</title>
    <defs>
        <path d="M11.4529574,10.5540203 C9.9948518,10.0798742 10.4099284,9.70243326 11.8014711,9.16392495 C12.4680426,8.90550565 12.0626993,8.36052877 12.0809099,7.92454726 C12.0890733,7.72499193 12.8507796,7.76477363 12.7955198,6.995014 C12.7565868,6.45294797 11.5973865,5.68060092 11.2815264,5.35102736 C11.0991062,5.16085146 11.6532743,4.64045514 11.2630018,4.18280393 C10.7301841,3.55729338 10.6460385,2.46895676 10.3235849,1.86026448 C10.3235849,1.86026448 10.5694283,1.4734441 10.3810426,1.25351278 C8.75590157,-0.641454308 2.69145057,-0.467449821 1.14166387,2.3214734 C-0.59807846,5.45226046 -0.621312701,9.77940922 2.99600752,12.1106812 C4.60482175,13.1472693 2.54419571,16.8181818 2.54419571,16.8181818 L8.92387886,16.8181818 C8.92387886,16.1913775 8.21240871,13.9429032 9.45763846,14.0438129 C10.5396006,14.131462 11.8645803,14.0832711 11.7471532,12.8244877 C11.7116739,12.4447828 11.669915,12.102919 11.9273755,11.7882231 C12.1848361,11.4738507 12.5575258,10.9130258 11.4529574,10.5540203" id="path-1"></path>
    </defs>
    <g id="Flows-test" stroke="none" stroke-width="1" fill="none" fill-rule="evenodd">
        <g id="Oplæste-de" transform="translate(-33.000000, -388.000000)" fill-rule="nonzero">
            <g id="bi:play-fill-copy-11" transform="translate(34.000000, 389.000000)">
                <path d="M21.8374287,15.8440254 L3.5447011,27.0990237 C1.99227726,28.0531988 0,26.8978238 0,24.9742312 L0,2.46423467 C0,0.543690548 1.9894024,-0.614732893 3.5447011,0.342490687 L21.8374287,11.597489 C22.556286,12.0326433 23,12.8430228 23,13.7207572 C23,14.5984916 22.556286,15.408871 21.8374287,15.8440254 Z" id="Path" stroke="#FFFFFF" stroke-width="2" fill="#000000"></path>
                <g id="Shape" transform="translate(8.420968, 20.181818)">
                    <use stroke="#FFFFFF" stroke-width="5" fill="#FFFFFF" xlink:href="#path-1"></use>
                    <use stroke="#000000" stroke-width="1" xlink:href="#path-1"></use>
                </g>
            </g>
        </g>
    </g>
</svg>