<?xml version="1.0" encoding="UTF-8"?>
<svg width="19px" height="21px" viewBox="0 0 19 21" version="1.1" xmlns="http://www.w3.org/2000/svg" xmlns:xlink="http://www.w3.org/1999/xlink">
    <title>Stroke 3</title>
    <g id="🔹-S-/-Lytteoplevelse" stroke="none" stroke-width="1" fill="none" fill-rule="evenodd">
        <g id="mobile-" transform="translate(-280.000000, -17.000000)" fill="#000000" fill-rule="nonzero">
            <g id="Group-4" transform="translate(280.500000, 17.000000)">
                <path d="M14.4055893,0 L14.405,16.799 L15.0058222,16.8 C16.5222151,16.8 17.7867221,17.9268233 17.9822318,19.4244026 L18,19.5988026 L18,21 L0,21 L0,19.8 C0,18.201821 1.24892419,16.8963035 2.82477175,16.8050908 L3.00116445,16.8 L3.601,16.799 L3.60139734,10.8 L1.80069867,10.8 C0.91700393,10.8 0.181547803,10.1629794 0.0290229201,9.32346228 L0.00824643168,9.1732986 L0,9 C0,8.05591769 0.727904234,7.28109177 1.65305966,7.20596938 L1.80069867,7.2 L3.60139734,7.2 L3.60139734,0 L14.4055893,0 Z M13.2051236,1.2 L4.80186312,1.2 L4.80186312,8.4 L1.80069867,8.4 C1.46954103,8.4 1.20046578,8.66897085 1.20046578,9 C1.20046578,9.29792624 1.41841673,9.54558525 1.70342084,9.59213779 L1.80069867,9.6 L4.80186312,9.6 L4.801,13.2 L5.402096,13.2 C6.39711122,13.2 7.20279467,12.3946292 7.20279467,11.4 C7.20279467,11.0686292 7.47152809,10.8 7.80302756,10.8 C8.13452703,10.8 8.40326045,11.0686292 8.40326045,11.4 C8.40326045,12.991076 7.16541314,14.2920861 5.59948055,14.3936212 L5.402096,14.4 L4.801,14.4 L4.801,16.799 L13.205,16.799 L13.2051236,1.2 Z M9.00349334,2.4 C9.33499281,2.4 9.60372623,2.66862915 9.60372623,3 C9.60372623,4.65737085 8.26057594,6 6.60256178,6 C6.27106231,6 6.00232889,5.73137085 6.00232889,5.4 C6.00232889,5.06862915 6.27106231,4.8 6.60256178,4.8 C7.597577,4.8 8.40326045,3.99462915 8.40326045,3 C8.40326045,2.66862915 8.67199387,2.4 9.00349334,2.4 Z" id="Stroke-3"></path>
            </g>
        </g>
    </g>
</svg>