<?xml version="1.0" encoding="UTF-8"?>
<svg width="28px" height="24px" viewBox="0 0 28 24" version="1.1" xmlns="http://www.w3.org/2000/svg" xmlns:xlink="http://www.w3.org/1999/xlink">
    <title>Group 2</title>
    <g id="🔹-S-/-Lytteoplevelse" stroke="none" stroke-width="1" fill="none" fill-rule="evenodd">
        <g id="mobile-maximized-player-long-podcast-label-and-long-title-v2" transform="translate(-319.000000, -760.000000)">
            <g id="Group-2" transform="translate(319.646294, 760.500000)">
                <path d="M21.3537058,8.80582667 L21.3537058,9.22849235 C21.3537058,9.44940625 21.1746197,9.62849236 20.9537058,9.62849236 L0.400000006,9.62849236 C0.179086103,9.62849236 2.70541504e-17,9.44940625 0,9.22849235 L0,8.80582667 C-8.25653017e-17,8.58491276 0.179086103,8.40582666 0.400000006,8.40582666 L20.9537058,8.40582666 C21.1746197,8.40582666 21.3537058,8.58491276 21.3537058,8.80582667 Z M16,17.6773343 L16,18.1 C16,18.3209139 15.8209139,18.5 15.6,18.5 L0.400000006,18.5 C0.179086103,18.5 2.70541504e-17,18.3209139 0,18.1 L0,17.6773343 C-2.70541504e-17,17.4564204 0.179086103,17.2773343 0.400000006,17.2773343 L15.6,17.2773343 C15.8209139,17.2773343 16,17.4564204 16,17.6773343 Z M21.3537058,0.400000006 L21.3537058,0.82266569 C21.3537058,1.04357959 21.1746197,1.2226657 20.9537058,1.2226657 L0.400000006,1.2226657 C0.179086103,1.2226657 8.25653017e-17,1.04357959 0,0.82266569 L0,0.400000006 C-8.25653017e-17,0.179086103 0.179086103,4.05812257e-17 0.400000006,0 L20.9537058,0 C21.1746197,-4.05812257e-17 21.3537058,0.179086103 21.3537058,0.400000006 Z" id="Line-2" fill="#FFFFFF" fill-rule="nonzero"></path>
                <path d="M26.424,14.633 L26.6011636,21.7361236 L21.4830568,18.9966518 L26.424,14.633 Z" id="Rectangle-3" stroke="#FFFFFF" stroke-width="1.3027039" transform="translate(23.641954, 18.492727) scale(-1, 1) translate(-23.641954, -18.492727) "></path>
            </g>
        </g>
    </g>
</svg>