<?xml version="1.0" encoding="UTF-8"?>
<svg width="23px" height="18px" viewBox="0 0 23 18" version="1.1" xmlns="http://www.w3.org/2000/svg" xmlns:xlink="http://www.w3.org/1999/xlink">
    <title>playlist-add copy</title>
    <g id="Flows-test" stroke="none" stroke-width="1" fill="none" fill-rule="evenodd">
        <g id="Oplæste-de" transform="translate(-34.000000, -556.000000)">
            <g id="ic:baseline-playlist-add" transform="translate(31.000000, 549.000000)">
                <rect id="ViewBox" x="0" y="0" width="29" height="29"></rect>
                <path d="M16.9166667,12.0833333 L3.625,12.0833333 L3.625,13.2916667 L16.9166667,13.2916667 L16.9166667,12.0833333 Z M16.9166667,7.25 L3.625,7.25 L3.625,8.45833333 L16.9166667,8.45833333 L16.9166667,7.25 Z M20.5416667,18.125 L20.5416667,13.2916667 L19.3333333,13.2916667 L19.3333333,18.125 L14.5,18.125 L14.5,19.3333333 L19.3333333,19.3333333 L19.3333333,24.1666667 L20.5416667,24.1666667 L20.5416667,19.3333333 L25.375,19.3333333 L25.375,18.125 L20.5416667,18.125 Z M3.625,18.125 L12.0833333,18.125 L12.0833333,16.9166667 L3.625,16.9166667 L3.625,18.125 Z" id="Shape" fill="#000000" fill-rule="nonzero"></path>
            </g>
        </g>
    </g>
</svg>