<?xml version="1.0" encoding="UTF-8"?>
<svg width="24px" height="18px" viewBox="0 0 24 18" version="1.1" xmlns="http://www.w3.org/2000/svg" xmlns:xlink="http://www.w3.org/1999/xlink">
    <title>icon_read-articles</title>
    <g id="Flows-test" stroke="none" stroke-width="1" fill="none" fill-rule="evenodd">
        <path d="M16.875,6.1875 C16.875,3.39203517 14.6079648,1.125 11.8125,1.125 C9.0969056,1.125 6.87997624,3.26434095 6.75551137,5.94922339 L6.75,6.1875 L6.75,8.4375 L6.749,8.448 L6.75,17.4375 C6.75,17.7170942 6.54600974,17.9490438 6.27874042,17.9926378 L6.1875,18 L5.0625,18 C2.26671483,18 0,15.7332852 0,12.9375 C0,10.1417148 2.26671483,7.875 5.0625,7.875 L5.0625,7.875 L5.625,7.875 L5.625,6.1875 C5.625,2.77071483 8.39571483,0 11.8125,0 C15.1459489,0 17.8644588,2.63720626 17.9950861,5.93867517 L18,6.1875 L18,7.875 L18.5625,7.875 C21.2847119,7.875 23.5053328,10.0239838 23.6203224,12.717911 L23.625,12.9375 C23.625,15.7332852 21.3582852,18 18.5625,18 L18.5625,18 L17.4375,18 C17.1268398,18 16.875,17.7481602 16.875,17.4375 L16.875,17.4375 L16.875,6.1875 Z M5.625,9 L5.0625,9 C2.96051733,9 1.24299282,10.6474584 1.13082672,12.721475 L1.13082672,12.721475 L1.125,12.9375 C1.125,15.1119648 2.88803517,16.875 5.0625,16.875 L5.0625,16.875 L5.625,16.875 L5.625,9 Z M18.5625,9 L18,9 L18,16.875 L18.5625,16.875 C20.7369648,16.875 22.5,15.1119648 22.5,12.9375 C22.5,10.7630352 20.7369648,9 18.5625,9 L18.5625,9 Z" id="icon_read-articles" fill="#222222" fill-rule="nonzero"></path>
    </g>
</svg>