<?xml version="1.0" encoding="UTF-8"?>
<svg width="31px" height="28px" viewBox="0 0 31 28" version="1.1" xmlns="http://www.w3.org/2000/svg" xmlns:xlink="http://www.w3.org/1999/xlink">
    <title>Group 13 Copy</title>
    <g id="Test-(Maze)" stroke="none" stroke-width="1" fill="none" fill-rule="evenodd">
        <g id="Mobile" transform="translate(-172.000000, -1265.000000)">
            <g id="Group-9" transform="translate(20.000000, 784.500000)">
                <g id="Group-13-Copy" transform="translate(153.000000, 481.500000)">
                    <path d="M0,26 L0,25.6454545 C-1.12797657e-15,23.6873541 1.58735407,22.1 3.54545455,22.1 L18.8636364,22.1 C20.8217368,22.1 22.4090909,23.6873541 22.4090909,25.6454545 L22.4090909,26 L22.4090909,26" id="Rectangle-4" stroke="#41A8E2" stroke-width="1.18181818"></path>
                    <path d="M20.731405,7.89285714 L17.3760331,7.89285714 L17.3760331,0 L3.95454545,0 L3.95454545,22.1 L17.3760331,22.1 L17.3760331,18.7976286 C14.0206612,18.9428571 13.8409091,15.2645623 14.5,15.2121909 C15.1590909,15.1598194 17.3760331,14.4482617 17.3760331,14.3523714 L17.3760331,11.05 L20.731405,11.05 C21.6591653,11.05 22.4090909,10.3428 22.4090909,9.47142857 C22.4090909,8.60005714 21.6591653,7.89285714 20.731405,7.89285714 Z" id="Stroke-8" stroke="#41A8E2" stroke-width="1.18181818"></path>
                    <path d="M24.0003011,14.95 C25.0298011,16.0270509 25.0298011,17.7743281 24.0003011,18.85" id="Stroke-9" stroke="#41A8E2" stroke-width="1.18181818" stroke-linecap="round"></path>
                    <path d="M27.9548466,14.3 C28.9843466,15.7360679 28.9843466,18.0657709 27.9548466,19.5" id="Stroke-11" stroke="#41A8E2" stroke-width="1.18181818" stroke-linecap="round"></path>
                    <path d="M11.3363636,3.12 C10.8995566,3.12 10.5454545,3.4692179 10.5454545,3.9 C10.5454545,6.0545821 12.3152839,7.8 14.5,7.8 C14.936807,7.8 15.2909091,7.4507821 15.2909091,7.02 C15.2909091,6.5892179 14.936807,6.24 14.5,6.24 C13.1888979,6.24 12.1272727,5.1930179 12.1272727,3.9 C12.1272727,3.4692179 11.7731707,3.12 11.3363636,3.12 Z" id="Stroke-1" fill="#41A8E2" fill-rule="nonzero"></path>
                    <path d="M19.2077922,22.1 L3.2012987,22.1 C1.43418182,22.1 0,23.8472 0,26 L22.4090909,26 C22.4090909,23.8472 20.9749091,22.1 19.2077922,22.1" id="Fill-3" stroke="#41A8E2" stroke-width="1.18181818"></path>
                    <path d="M19.2077922,22.1 L3.2012987,22.1 C1.43418182,22.1 0,23.8472 0,26 L22.4090909,26 C22.4090909,23.8472 20.9749091,22.1 19.2077922,22.1" id="Fill-3" stroke="#41A8E2" stroke-width="1.18181818"></path>
                    <path d="M19.2077922,22.1 L3.2012987,22.1 C1.43418182,22.1 0,23.8472 0,26 L22.4090909,26 C22.4090909,23.8472 20.9749091,22.1 19.2077922,22.1" id="Fill-3" fill="#41A8E2"></path>
                </g>
            </g>
        </g>
    </g>
</svg>