<svg xmlns="http://www.w3.org/2000/svg" viewBox="0 0 412.43 412.53"><g id="Layer_2" data-name="Layer 2"><g id="Layer_1-2" data-name="Layer 1"><path d="M154.43,309.72A153,153,0,0,0,254.62,272.6l135.8,136.15a12.89,12.89,0,0,0,18.25-18.2L272.75,254.31c50.89-60.77,47.9-151.76-9.08-208.9a154.16,154.16,0,0,0-218.5,0c-60.23,60.37-60.23,158.6,0,219a153.23,153.23,0,0,0,109.25,45.36Zm-91-246.14a128.44,128.44,0,0,1,182,0c50.21,50.33,50.21,132.23,0,182.56a128.44,128.44,0,0,1-182,0c-50.22-50.33-50.22-132.23,0-182.56Z"/></g></g></svg>