<?xml version="1.0" encoding="UTF-8"?>
<svg width="22px" height="21px" viewBox="0 0 22 21" version="1.1" xmlns="http://www.w3.org/2000/svg" xmlns:xlink="http://www.w3.org/1999/xlink">
    <title>icon_settings</title>
    <g id="Flows-test" stroke="none" stroke-width="1" fill="none" fill-rule="evenodd">
        <g id="mobile-profile-menu-digital-plus-subscription" transform="translate(-104.000000, -163.000000)" fill="#000000" fill-rule="nonzero">
            <g id="menu" transform="translate(80.000000, 72.000000)">
                <g id="Group-2" transform="translate(24.500000, 91.000000)">
                    <path d="M8.925,0 L8.83063059,0.00845845288 C8.58571892,0.0529112111 8.4,0.267267117 8.4,0.525 L8.4,2.36565 L8.12630834,2.44145245 C7.55533232,2.6098204 7.00462878,2.83923115 6.48224607,3.12493071 L6.2349,3.2655 L4.93138106,1.96186894 C4.72635581,1.75684369 4.39394419,1.75684369 4.18891894,1.96186894 L1.96186894,4.18891894 L1.90112072,4.26162922 C1.75937486,4.46624077 1.77962427,4.74913639 1.96186894,4.93138106 L3.2655,6.2349 L3.12493071,6.48224607 C2.83923115,7.00462878 2.6098204,7.55533232 2.44145245,8.12630834 L2.36565,8.4 L0.525,8.4 C0.235050506,8.4 0,8.63505051 0,8.925 L0,12.075 L0.00845845288,12.1693694 C0.0529112111,12.4142811 0.267267117,12.6 0.525,12.6 L2.3667,12.6 L2.44145245,12.8736917 C2.6098204,13.4446677 2.83923115,13.9953712 3.12493071,14.5177539 L3.2655,14.76405 L1.96186894,16.0686189 C1.75684369,16.2736442 1.75684369,16.6060558 1.96186894,16.8110811 L4.18891894,19.0381311 L4.26162922,19.0988793 C4.46624077,19.2406251 4.74913639,19.2203757 4.93138106,19.0381311 L6.2349,17.73345 L6.48224607,17.8750693 C7.00462878,18.1607688 7.55533232,18.3901796 8.12630834,18.5585475 L8.4,18.6333 L8.4,20.475 C8.4,20.7649495 8.63505051,21 8.925,21 L12.075,21 L12.1693694,20.9915415 C12.4142811,20.9470888 12.6,20.7327329 12.6,20.475 L12.6,18.63225 L12.8736917,18.5585475 C13.4446677,18.3901796 13.9953712,18.1607688 14.5177539,17.8750693 L14.76405,17.73345 L16.0686189,19.0381311 C16.2736442,19.2431563 16.6060558,19.2431563 16.8110811,19.0381311 L19.0381311,16.8110811 L19.0988793,16.7383708 C19.2406251,16.5337592 19.2203757,16.2508636 19.0381311,16.0686189 L17.73345,14.76405 L17.8750693,14.5177539 C18.1607688,13.9953712 18.3901796,13.4446677 18.5585475,12.8736917 L18.63225,12.6 L20.475,12.6 C20.7649495,12.6 21,12.3649495 21,12.075 L21,8.925 L20.9915415,8.83063059 C20.9470888,8.58571892 20.7327329,8.4 20.475,8.4 L18.6333,8.4 L18.5585475,8.12630834 C18.3901796,7.55533232 18.1607688,7.00462878 17.8750693,6.48224607 L17.73345,6.2349 L19.0381311,4.93138106 C19.2431563,4.72635581 19.2431563,4.39394419 19.0381311,4.18891894 L16.8110811,1.96186894 L16.7383708,1.90112072 C16.5337592,1.75937486 16.2508636,1.77962427 16.0686189,1.96186894 L14.76405,3.2655 L14.5177539,3.12493071 C13.9953712,2.83923115 13.4446677,2.6098204 12.8736917,2.44145245 L12.6,2.3667 L12.6,0.525 C12.6,0.235050506 12.3649495,0 12.075,0 L8.925,0 Z M9.45,1.05 L11.55,1.05 L11.55,2.78355 C11.55,3.03329234 11.7259315,3.24846653 11.9706952,3.29808427 C12.8916796,3.4847833 13.7653153,3.84995506 14.5508959,4.37001546 L14.6318199,4.41395752 C14.8265742,4.49852957 15.0574867,4.4579254 15.2119311,4.30348106 L16.43985,3.07545 L17.92455,4.56015 L16.6965189,5.78806894 C16.5200111,5.96457675 16.4921925,6.2409614 16.6299845,6.44910407 C17.1500449,7.23468475 17.5152167,8.1083204 17.7019157,9.02930475 L17.728027,9.11765548 C17.8058671,9.31530248 17.9979255,9.45 18.21645,9.45 L19.95,9.45 L19.95,11.55 L18.21645,11.55 C17.9667077,11.55 17.7515335,11.7259315 17.7019157,11.9706952 C17.5152167,12.8916796 17.1500449,13.7653153 16.6299845,14.5508959 L16.5860425,14.6318199 C16.5014704,14.8265742 16.5420746,15.0574867 16.6965189,15.2119311 L17.92455,16.43985 L16.43985,17.92455 L15.2119311,16.6965189 C15.0354232,16.5200111 14.7590386,16.4921925 14.5508959,16.6299845 C13.7653153,17.1500449 12.8916796,17.5152167 11.9706952,17.7019157 L11.8823445,17.728027 C11.6846975,17.8058671 11.55,17.9979255 11.55,18.21645 L11.55,19.95 L9.45,19.95 L9.45,18.21645 C9.45,17.9667077 9.27406855,17.7515335 9.02930475,17.7019157 C8.1083204,17.5152167 7.23468475,17.1500449 6.44910407,16.6299845 L6.36818009,16.5860425 C6.17342582,16.5014704 5.94251328,16.5420746 5.78806894,16.6965189 L4.56015,17.92455 L3.07545,16.43985 L4.30348106,15.2119311 C4.47998887,15.0354232 4.5078075,14.7590386 4.37001546,14.5508959 C3.84995506,13.7653153 3.4847833,12.8916796 3.29808427,11.9706952 L3.271973,11.8823445 C3.19413286,11.6846975 3.00207455,11.55 2.78355,11.55 L1.05,11.55 L1.05,9.45 L2.78355,9.45 C3.03329234,9.45 3.24846653,9.27406855 3.29808427,9.02930475 C3.4847833,8.1083204 3.84995506,7.23468475 4.37001546,6.44910407 L4.41395752,6.36818009 C4.49852957,6.17342582 4.4579254,5.94251328 4.30348106,5.78806894 L3.07545,4.56015 L4.56015,3.07545 L5.78806894,4.30348106 C5.96457675,4.47998887 6.2409614,4.5078075 6.44910407,4.37001546 C7.23468475,3.84995506 8.1083204,3.4847833 9.02930475,3.29808427 L9.11765548,3.271973 C9.31530248,3.19413286 9.45,3.00207455 9.45,2.78355 L9.45,1.05 Z M10.5,6.3 C8.18040051,6.3 6.3,8.18040051 6.3,10.5 C6.3,12.8195995 8.18040051,14.7 10.5,14.7 C12.8195995,14.7 14.7,12.8195995 14.7,10.5 C14.7,8.18040051 12.8195995,6.3 10.5,6.3 Z M10.5,7.35 C12.2397005,7.35 13.65,8.76029949 13.65,10.5 C13.65,12.2397005 12.2397005,13.65 10.5,13.65 C8.76029949,13.65 7.35,12.2397005 7.35,10.5 C7.35,8.76029949 8.76029949,7.35 10.5,7.35 Z" id="icon_settings"></path>
                </g>
            </g>
        </g>
    </g>
</svg>