<?xml version="1.0" encoding="UTF-8"?>
<svg width="51px" height="47px" viewBox="0 0 51 47" version="1.1" xmlns="http://www.w3.org/2000/svg" xmlns:xlink="http://www.w3.org/1999/xlink">
    <title>Illustration</title>
    <defs>
        <polygon id="path-1" points="0 0 31.2283529 0 31.2283529 14.2359293 0 14.2359293"></polygon>
    </defs>
    <g id="Test-(Maze)" stroke="none" stroke-width="1" fill="none" fill-rule="evenodd">
        <g id="mobile_WA_cookies_consent" transform="translate(-32.000000, -741.000000)">
            <g id="001-/-toaster" transform="translate(8.000000, 728.000000)">
                <g id="Illustration" transform="translate(24.000000, 14.000000)">
                    <path d="M39.9413771,31.07333 L45.4277904,29.7615046 L45.9265378,35.6645295 C45.9265378,35.6645295 46.0097905,37.5503498 44.0148011,38.2881805 C42.0196193,39.0258216 38.1955691,38.2881805 38.1955691,38.2881805 L37.8631349,36.0744987 L37.9461954,32.2211299" id="Fill-1" fill="#FEFEFE"></path>
                    <path d="M43.7901532,36.943 C43.5363574,37.3197848 43.0214593,37.4219926 42.6392274,37.1728254 L38.7498054,34.6254037 C38.367958,34.375478 38.2635556,33.8672831 38.5173515,33.4910672 L44.5884567,24.4586616 C44.8420603,24.0820664 45.3571506,23.9792897 45.7391903,24.229405 L49.6288045,26.7764474 C50.0108442,27.0258042 50.1150543,27.5341888 49.8612584,27.9107839 L43.7901532,36.943 Z" id="Fill-3" fill="#FEFEFE"></path>
                    <path d="M43.7901532,36.943 C43.5363574,37.3197848 43.0214593,37.4219926 42.6392274,37.1728254 L38.7498054,34.6254037 C38.367958,34.375478 38.2635556,33.8672831 38.5173515,33.4910672 L44.5884567,24.4586616 C44.8420603,24.0820664 45.3571506,23.9792897 45.7391903,24.229405 L49.6288045,26.7764474 C50.0108442,27.0258042 50.1150543,27.5341888 49.8612584,27.9107839 L43.7901532,36.943 Z" id="Stroke-5" stroke="#231F20" stroke-width="0.704910173" stroke-linecap="round" stroke-linejoin="round"></path>
                    <path d="M45.199874,34.6165672 C42.7247873,34.6774368 42.8799489,37.1205648 45.199874,37.0502139 C47.1427584,36.9916198 47.3821341,34.5625241 45.199874,34.6165672" id="Fill-7" fill="#FEFEFE"></path>
                    <path d="M45.199874,34.6165672 C42.7247873,34.6774368 42.8799489,37.1205648 45.199874,37.0502139 C47.1427584,36.9916198 47.3821341,34.5625241 45.199874,34.6165672 Z" id="Stroke-9" stroke="#231F20" stroke-width="0.704910173" stroke-linecap="round" stroke-linejoin="round"></path>
                    <path d="M47.0020171,32.4410569 C44.5265458,32.5017369 44.6817074,34.9450545 47.0020171,34.8748933 C48.9447092,34.8161095 49.1838926,32.3873931 47.0020171,32.4410569" id="Fill-11" fill="#FEFEFE"></path>
                    <path d="M47.0020171,32.4410569 C44.5265458,32.5017369 44.6817074,34.9450545 47.0020171,34.8748933 C48.9447092,34.8161095 49.1838926,32.3873931 47.0020171,32.4410569 Z" id="Stroke-13" stroke="#231F20" stroke-width="0.704910173" stroke-linecap="round" stroke-linejoin="round"></path>
                    <path d="M48.0309671,29.9929798 C45.5558804,30.054039 45.711042,32.497167 48.0309671,32.427385 C49.9738515,32.3684116 50.2128426,29.9393159 48.0309671,29.9929798" id="Fill-15" fill="#FEFEFE"></path>
                    <path d="M48.0309671,29.9929798 C45.5558804,30.054039 45.711042,32.497167 48.0309671,32.427385 C49.9738515,32.3684116 50.2128426,29.9393159 48.0309671,29.9929798 Z" id="Stroke-17" stroke="#231F20" stroke-width="0.704910173" stroke-linecap="round" stroke-linejoin="round"></path>
                    <g id="Group-22" transform="translate(36.963342, 29.204766)">
                        <path d="M0.785700501,9.85039004 C0.785700501,9.85039004 -1.37252586,2.01072537 1.46498903,1.00495458 C1.46498903,1.00495458 2.48113391,0.572609679 4.40459908,0.0797744103 C6.48764802,-0.453640599 7.23346183,1.8370289 4.98217698,2.53105625 C2.73127667,3.22489398 2.15639054,3.40560656 2.15639054,3.40560656" id="Fill-19" fill="#FEFEFE"></path>
                        <path d="M0.785700501,9.85039004 C0.785700501,9.85039004 -1.37252586,2.01072537 1.46498903,1.00495458 C1.46498903,1.00495458 2.48113391,0.572609679 4.40459908,0.0797744103 C6.48764802,-0.453640599 7.23346183,1.8370289 4.98217698,2.53105625 C2.73127667,3.22489398 2.15639054,3.40560656 2.15639054,3.40560656" id="Stroke-21" stroke="#231F20" stroke-width="0.704910173" stroke-linecap="round" stroke-linejoin="round"></path>
                    </g>
                    <g id="Group-26" transform="translate(38.378602, 32.708864)">
                        <path d="M1.4963076,2.65323243 L0.371145854,1.91653946 C-0.0107015894,1.66661376 -0.115103987,1.15841887 0.138691897,0.782202956 L0.55476333,0.164025589 L0.691082483,0" id="Fill-23" fill="#FEFEFE"></path>
                        <path d="M1.4963076,2.65323243 L0.371145854,1.91653946 C-0.0107015894,1.66661376 -0.115103987,1.15841887 0.138691897,0.782202956 L0.55476333,0.164025589 L0.691082483,0" id="Stroke-25" stroke="#231F20" stroke-width="0.704910173" stroke-linecap="round" stroke-linejoin="round"></path>
                    </g>
                    <path d="M25.3014692,24.9360613 C24.7396574,24.751177 24.112474,24.5575699 23.3193618,24.2945601 C23.6337226,22.3897774 23.9275106,18.5276859 24.0246067,15.4891355 C24.2549457,8.28566258 16.9433171,6.29042876 13.2084799,9.55197806 C11.870668,10.7194989 10.973538,13.2779189 11.0833239,15.8183244 C11.4155658,23.5153912 14.0894592,34.1243387 14.0894592,34.1243387 L20.8823445,33.6965448 C21.4264675,31.8951077 22.1853557,29.7003884 22.5049078,28.2797183 C22.6385351,27.7007933 22.7971576,27.0748413 22.9190565,26.4733509 C22.9344381,26.4001557 22.9427057,26.359007 22.9427057,26.359007 C23.5343192,26.503122 24.1411221,26.6404105 24.6533284,26.7426183 C26.0055605,27.0126443 26.3762563,25.2893326 25.3014692,24.9360613" id="Fill-27" fill="#FEFEFE"></path>
                    <path d="M25.3014692,24.9360613 C24.7396574,24.751177 24.112474,24.5575699 23.3193618,24.2945601 C23.6337226,22.3897774 23.9275106,18.5276859 24.0246067,15.4891355 C24.2549457,8.28566258 16.9433171,6.29042876 13.2084799,9.55197806 C11.870668,10.7194989 10.973538,13.2779189 11.0833239,15.8183244 C11.4155658,23.5153912 14.0894592,34.1243387 14.0894592,34.1243387 L20.8823445,33.6965448 C21.4264675,31.8951077 22.1853557,29.7003884 22.5049078,28.2797183 C22.6385351,27.7007933 22.7971576,27.0748413 22.9190565,26.4733509 C22.9344381,26.4001557 22.9427057,26.359007 22.9427057,26.359007 C23.5343192,26.503122 24.1411221,26.6404105 24.6533284,26.7426183 C26.0055605,27.0126443 26.3762563,25.2893326 25.3014692,24.9360613 Z" id="Stroke-29" stroke="#231F20" stroke-width="0.704910173" stroke-linecap="round" stroke-linejoin="round"></path>
                    <g id="Group-34" transform="translate(19.554857, 27.930012)">
                        <path d="M2.41682898,1.67704314 C2.41682898,1.67704314 1.00633913,1.7284315 0,0" id="Fill-31" fill="#FEFEFE"></path>
                        <path d="M2.41682898,1.67704314 C2.41682898,1.67704314 1.00633913,1.7284315 0,0" id="Stroke-33" stroke="#231F20" stroke-width="0.704910173" stroke-linecap="round" stroke-linejoin="round"></path>
                    </g>
                    <g id="Group-37" transform="translate(0.000000, 31.764071)">
                        <mask id="mask-2" fill="white">
                            <use xlink:href="#path-1"></use>
                        </mask>
                        <g id="Clip-36"></g>
                        <path d="M29.2362475,10.6171266 C27.8738251,8.33423175 26.0795651,5.69522119 26.0795651,5.69522119 C23.8948055,2.52146826 20.6771736,0.327507481 17.3880174,0.0563437899 C14.2422944,-0.202873529 11.0463889,0.436541833 8.49997023,1.88755202 C8.44286615,1.89551627 8.38653116,1.90954851 8.33288794,1.93514788 C8.25924867,1.96984925 6.50863389,2.81443882 4.58439964,4.8678875 C2.93318824,6.62912412 0.837834047,9.66464046 -7.69078435e-05,14.2359293 L31.2283529,14.2359293 C30.6227037,13.0756142 29.880543,11.6970408 29.2362475,10.6171266" id="Fill-35" fill="#231F20" mask="url(#mask-2)"></path>
                    </g>
                    <path d="M41.5895699,39.2286823 C41.6522498,38.9597941 41.5040099,38.686355 41.2425232,38.5883189 L37.6905345,37.2605649 C37.5499854,37.2080388 37.3934779,37.2135379 37.2571588,37.2759245 C37.1204551,37.3381215 37.0148991,37.4524654 36.9645245,37.5924086 L33.9385853,46 L39.918747,46 C40.857984,42.3590112 41.5816868,39.2616771 41.5895699,39.2286823" id="Fill-38" fill="#231F20"></path>
                    <path d="M26.0795651,37.4592729 C26.1189804,37.4934054 26.0507247,37.4139525 26.0795651,37.4592729" id="Fill-40" fill="#231F20"></path>
                    <path d="M45.9479182,36.9007705 C45.9479182,36.9007705 43.4161119,39.2616012 40.4190133,38.7443043" id="Stroke-42" stroke="#231F20" stroke-width="0.704910173" stroke-linecap="round" stroke-linejoin="round"></path>
                    <path d="M8.78054927,18.9008488 L6.92245577,18.9008488 C6.13088179,18.8892817 5.70865773,18.4728653 5.72077071,17.6845943 L5.72077071,10.9018992 C5.73173008,10.1598967 6.25931789,9.73798118 6.92245577,9.74746243 L8.78054927,9.74746243 L8.78054927,18.9008488 Z" id="Fill-44" fill="#00ADEE"></path>
                    <path d="M8.78054927,18.9008488 L6.92245577,18.9008488 C6.13088179,18.8892817 5.70865773,18.4728653 5.72077071,17.6845943 L5.72077071,10.9018992 C5.73173008,10.1598967 6.25931789,9.73798118 6.92245577,9.74746243 L8.78054927,9.74746243 L8.78054927,18.9008488 Z" id="Stroke-46" stroke="#00ADEE" stroke-width="0.704910173" stroke-linecap="round" stroke-linejoin="round"></path>
                    <path d="M4.85780703,11.4572348 L4.85780703,16.8591258 C4.85780703,16.8591258 4.05681184,16.9040222 4.04469885,14.1461167 C4.03393175,11.5719579 4.85780703,11.4572348 4.85780703,11.4572348" id="Fill-48" fill="#00ADEE"></path>
                    <path d="M4.85780703,11.4572348 L4.85780703,16.8591258 C4.85780703,16.8591258 4.05681184,16.9040222 4.04469885,14.1461167 C4.03393175,11.5719579 4.85780703,11.4572348 4.85780703,11.4572348 Z" id="Stroke-50" stroke="#00ADEE" stroke-width="0.5" stroke-linecap="round" stroke-linejoin="round"></path>
                    <path d="M26.5786393,18.9008488 L28.4367328,18.9008488 C29.2279223,18.8892817 29.6501463,18.4728653 29.6384179,17.6845943 L29.6384179,10.9018992 C29.627074,10.1598967 29.0994862,9.73798118 28.4367328,9.74746243 L26.5786393,9.74746243 L26.5786393,18.9008488 Z" id="Fill-52" fill="#00ADEE"></path>
                    <path d="M26.5786393,18.9008488 L28.4367328,18.9008488 C29.2279223,18.8892817 29.6501463,18.4728653 29.6384179,17.6845943 L29.6384179,10.9018992 C29.627074,10.1598967 29.0994862,9.73798118 28.4367328,9.74746243 L26.5786393,9.74746243 L26.5786393,18.9008488 Z" id="Stroke-54" stroke="#00ADEE" stroke-width="0.704910173" stroke-linecap="round" stroke-linejoin="round"></path>
                    <path d="M30.5010162,11.4572348 L30.5010162,16.8591258 C30.5010162,16.8591258 31.302396,16.9040222 31.3139321,14.1461167 C31.3252761,11.5719579 30.5010162,11.4572348 30.5010162,11.4572348" id="Fill-56" fill="#00ADEE"></path>
                    <path d="M30.5010162,11.4572348 L30.5010162,16.8591258 C30.5010162,16.8591258 31.302396,16.9040222 31.3139321,14.1461167 C31.3252761,11.5719579 30.5010162,11.4572348 30.5010162,11.4572348 Z" id="Stroke-58" stroke="#00ADEE" stroke-width="0.5" stroke-linecap="round" stroke-linejoin="round"></path>
                    <path d="M8.7723009,9.92421185 L8.7723009,8.78020447 C8.7723009,3.9309254 12.7580499,0 17.6749606,0 C22.591679,0 26.577428,3.9309254 26.577428,8.78020447 L26.577428,10.3561775" id="Stroke-60" stroke="#00ADEE" stroke-width="0.704910173" stroke-linecap="round" stroke-linejoin="round"></path>
                    <g id="Group-65" transform="translate(17.197978, 13.787081)">
                        <path d="M0,0 C0,0 0.961348044,2.84437438 3.84539217,3.03399934" id="Fill-62" fill="#FEFEFE"></path>
                        <path d="M0,0 C0,0 0.961348044,2.84437438 3.84539217,3.03399934" id="Stroke-64" stroke="#231F20" stroke-width="0.704910173" stroke-linecap="round"></path>
                    </g>
                    <g id="Group-69" transform="translate(19.699790, 7.150207)">
                        <line x1="0.0108086227" y1="1.21265161" x2="0.929071609" y2="0" id="Fill-66" fill="#FEFEFE"></line>
                        <line x1="0.0108086227" y1="1.21265161" x2="0.929071609" y2="0" id="Stroke-68" stroke="#231F20" stroke-width="0.704910173" stroke-linecap="round"></line>
                    </g>
                    <g id="Group-73" transform="translate(16.909574, 6.581332)">
                        <line x1="0.469940116" y1="1.32737471" x2="0.469940116" y2="0" id="Fill-70" fill="#FEFEFE"></line>
                        <line x1="0.469940116" y1="1.32737471" x2="0.469940116" y2="0" id="Stroke-72" stroke="#231F20" stroke-width="0.704910173" stroke-linecap="round"></line>
                    </g>
                    <g id="Group-77" transform="translate(13.544856, 7.529457)">
                        <line x1="1" y1="1.32737471" x2="0" y2="0" id="Fill-74" fill="#FEFEFE"></line>
                        <line x1="1" y1="1.32737471" x2="0" y2="0" id="Stroke-76" stroke="#231F20" stroke-width="0.704910173" stroke-linecap="round"></line>
                    </g>
                </g>
            </g>
        </g>
    </g>
</svg>