<?xml version="1.0" encoding="UTF-8"?>
<svg width="4000px" height="4000px" viewBox="0 0 4000 4000" version="1.1" xmlns="http://www.w3.org/2000/svg" xmlns:xlink="http://www.w3.org/1999/xlink">
    <!-- Generator: Sketch 59.1 (86144) - https://sketch.com -->
    <title>W-positive</title>
    <desc>Created with Sketch.</desc>
    <g id="W-positive" stroke="none" stroke-width="1" fill="none" fill-rule="evenodd">
        <g id="W_ikon.pos" transform="translate(640.000000, 1034.000000)" fill="#000000" fill-rule="nonzero">
            <path d="M937.400358,1932.00971 L966.349487,1932.00971 L1386.80112,937.400358 L1754.86861,1932.00971 L1783.81774,1932.00971 L2488.24654,91.6722409 C2514.43861,28.9491287 2543.38774,20.6779491 2590.25775,20.6779491 L2720.52883,20.6779491 L2720.52883,0 L2221.501,0 L2221.501,20.6779491 L2427.59122,20.6779491 C2466.87932,20.6779491 2484.80021,26.1920688 2469.63638,70.3050269 L1936.83456,1456.41688 L1612.88003,563.12948 L1798.98157,91.6722409 C1822.41658,28.9491287 1854.12277,20.6779491 1900.99279,20.6779491 L2023.68195,20.6779491 L2023.68195,0 L0,0 L0,20.6779491 L135.785199,20.6779491 C179.898157,20.6779491 211.604346,39.2881032 229.525235,86.1581212 L937.400358,1932.00971 Z M1600.47326,532.801821 L1435.73893,81.3332664 C1419.88584,34.4632485 1441.25305,21.367214 1477.78409,21.367214 L1746.59743,21.367214 C1775.54656,21.367214 1798.98157,28.9491287 1780.37142,76.5084116 L1600.47326,532.801821 Z M1140.73352,1457.10614 L613.445823,80.6440014 C597.592728,33.7739835 618.959942,20.6779491 655.490986,20.6779491 L992.541556,20.6779491 C1029.0726,20.6779491 1049.75055,28.2598637 1068.3607,80.6440014 L1373.70508,902.93711 L1140.73352,1457.10614 Z" id="Shape"></path>
        </g>
    </g>
</svg>